<?xml version="1.0" standalone="no"?>
<!DOCTYPE svg PUBLIC "-//W3C//DTD SVG 1.1//EN" "http://www.w3.org/Graphics/SVG/1.1/DTD/svg11.dtd" >
<svg xmlns="http://www.w3.org/2000/svg">
<metadata>
Created by FontForge 20120731 at Sat Apr  8 11:01:32 2017
 By admin
</metadata>
<defs>
<font id="iconfont" horiz-adv-x="1024" >
  <font-face 
    font-family="iconfont"
    font-weight="500"
    font-stretch="normal"
    units-per-em="1024"
    panose-1="2 0 6 3 0 0 0 0 0 0"
    ascent="896"
    descent="-128"
    x-height="792"
    bbox="0 -160 1170 896"
    underline-thickness="0"
    underline-position="0"
    unicode-range="U+0078-E7BA"
  />
<missing-glyph 
 />
    <glyph glyph-name=".notdef" 
 />
    <glyph glyph-name=".notdef" 
 />
    <glyph glyph-name=".null" horiz-adv-x="0" 
 />
    <glyph glyph-name="nonmarkingreturn" horiz-adv-x="341" 
 />
    <glyph glyph-name="x" unicode="x" horiz-adv-x="1001" 
d="M281 543q-27 -1 -53 -1h-83q-18 0 -36.5 -6t-32.5 -18.5t-23 -32t-9 -45.5v-76h912v41q0 16 -0.5 30t-0.5 18q0 13 -5 29t-17 29.5t-31.5 22.5t-49.5 9h-133v-97h-438v97zM955 310v-52q0 -23 0.5 -52t0.5 -58t-10.5 -47.5t-26 -30t-33 -16t-31.5 -4.5q-14 -1 -29.5 -0.5
t-29.5 0.5h-32l-45 128h-439l-44 -128h-29h-34q-20 0 -45 1q-25 0 -41 9.5t-25.5 23t-13.5 29.5t-4 30v167h911zM163 247q-12 0 -21 -8.5t-9 -21.5t9 -21.5t21 -8.5q13 0 22 8.5t9 21.5t-9 21.5t-22 8.5zM316 123q-8 -26 -14 -48q-5 -19 -10.5 -37t-7.5 -25t-3 -15t1 -14.5
t9.5 -10.5t21.5 -4h37h67h81h80h64h36q23 0 34 12t2 38q-5 13 -9.5 30.5t-9.5 34.5q-5 19 -11 39h-368zM336 498v228q0 11 2.5 23t10 21.5t20.5 15.5t34 6h188q31 0 51.5 -14.5t20.5 -52.5v-227h-327z" />
    <glyph glyph-name="liwu" unicode="&#xe60c;" 
d="M679 686v0q19 0 29 -10q8 -7 8 -21q0 -32 -32 -61q-21 -20 -52.5 -33.5t-57.5 -13.5q-4 0 -7.5 0.5t-5.5 0.5h-2v0q-6 12 7 46.5t40 59.5q34 32 73 32zM679 751q-65 0 -118 -49q-46 -44 -63 -105t16 -96q21 -20 60 -20q38 0 81.5 18t73.5 47q44 41 51.5 93.5t-27.5 84.5
q-29 27 -74 27zM345 686q39 0 73 -32q27 -25 40 -59.5t8 -45.5q-5 -2 -16 -2q-26 0 -57.5 13.5t-52.5 33.5q-32 29 -32 61q0 14 8 21q10 10 29 10zM345 751q-45 0 -74 -27q-35 -32 -27.5 -84.5t51.5 -93.5q30 -29 73.5 -47t81.5 -18q39 0 60 20q33 35 16 96t-63 105
q-53 49 -118 49zM896 225v224q0 27 -19 45.5t-45 18.5h-288v-288h352zM544 161v-288h288q26 0 45 19t19 45v224h-352zM480 225v288h-288q-26 0 -45 -18.5t-19 -45.5v-224h352zM128 161v-224q0 -26 19 -45t45 -19h288v288h-352z" />
    <glyph glyph-name="shoucang1" unicode="&#xe625;" 
d="M508 743q-17 0 -27 -11q-10 -10 -15 -24l-103 -236l-275 -25q-10 -2 -17 -9q-9 -7 -10.5 -19t5.5 -25q8 -11 19 -21l10 -9l22 -19q22 -19 31 -26l36 -30q30 -26 94 -80l-30 -124q-6 -22 -12 -47q-7 -27 -11 -42q-4 -20 -8 -32l-4 -17q-2 -8 1.5 -15.5t11.5 -13.5
q7 -5 17 -6q2 -1 4 -1q7 0 14 4q5 2 17 9q11 5 31 17q10 6 40 23q27 16 44 25q46 26 115 66l232 -134l13 -5q8 -3 13 -3q13 0 24 6t8 23q-1 3 -4 17l-6 33q-5 22 -9 44q-4 20 -10 47q-15 72 -26 127l184 164q12 14 19 22q8 9 8 22t-7 19q-8 6 -25 11l-276 25l-99 237
q-2 3 -5 9q-4 6 -8 10q-4 6 -11 10t-15 4v0z" />
    <glyph glyph-name="tianmaopeisonganzhuang" unicode="&#xe62e;" 
d="M512 827q-90 0 -172 -35t-141.5 -94.5t-94.5 -141.5t-35 -172t35 -172t94.5 -141t141.5 -94.5t172 -35.5t172 35.5t141.5 94.5t94.5 141t35 172t-35 172t-94.5 141.5t-141.5 94.5t-172 35zM512 -14q-108 0 -200 53.5t-145.5 145t-53.5 200t53.5 200t145.5 145t200 53.5
t200 -53.5t145 -145t53 -200t-53 -200t-145 -145t-200 -53.5zM691 509v2h-0.5h-0.5l0.5 -0.5t0.5 -1.5zM558 637zM542 608v0v0v0zM716 528q-9 23 -23 24q-12 0 -23 -20l-41 -71q-4 -6 -10.5 -8t-12.5 2l-77 44q-6 4 -7.5 10.5t1.5 12.5l44 76q1 2 3 5t4 10t1 11
q-3 10 -16 12q-11 2 -17 2q-76 -1 -129 -55.5t-53 -130.5q0 -98 77 -151l-81 -140q-3 -7 0 -15t10 -12q5 -3 14.5 -1.5t13.5 7.5l80 141q33 -15 72 -15q77 0 131.5 54.5t54.5 131.5q0 35 -16 76zM551 306q-40 0 -70 16q-2 3 -5 3q-72 42 -72 132q-1 41 30 85.5t79 44.5v0
l-41 -65q-6 -10 -3.5 -20t8 -16t12.5 -10l121 -73q9 -5 18.5 -2t14.5 11l44 71q6 -10 6 -30q0 -57 -40.5 -102t-101.5 -45v0z" />
    <glyph glyph-name="dianpu" unicode="&#xe617;" 
d="M714 515q-1 2 -1 4q0 5 -13 5h-339q-13 0 -13 -5q0 -2 -1 -4l-49 -169q-1 -1 -1 -3q1 -2 1 -4q0 -22 13 -37.5t31 -15.5t31 15.5t13 37.5q0 6 4.5 10.5t11 4.5t11 -4.5t4.5 -10.5q0 -23 13.5 -38.5t32.5 -15.5t32.5 15.5t13.5 38.5q0 6 4.5 10.5t10.5 4.5t10.5 -4.5
t4.5 -10.5q0 -22 13.5 -37t32.5 -15t32.5 15t13.5 37q0 6 4.5 10.5t10.5 4.5q10 0 14 -9q9 -3 9 -14q0 -19 14 -33.5t33 -14.5t32.5 14.5t13.5 33.5q0 5 3 9l-2 4zM649 293q-23 -37 -64 -37q-38 0 -61 32q-23 -34 -61 -34t-61 34q-18 -27 -48 -32q5 -4 5 -11v-159q0 -2 1 -4
l47 62h243l51 -61q1 1 1 3v159q0 5 3 9q-38 5 -56 39zM504 236l-2 2h3zM527 765q-91 0 -174 -35.5t-143 -95.5t-95 -142.5t-35 -173.5t35 -174t95 -143t143 -95.5t174 -35.5t174 35.5t142.5 95.5t95 143t35.5 174t-35.5 173.5t-95 142.5t-142.5 95.5t-174 35.5zM729 254
q4 -4 4 -9v-159q0 -17 -11.5 -28.5t-27.5 -11.5h-327q-16 0 -27 11.5t-11 28.5v159q0 6 4 11q-28 3 -47 27t-19 56q0 3 1 6q-1 5 0 9l49 168q1 14 13.5 23.5t30.5 9.5h339q18 0 30 -9.5t14 -23.5l48 -169q3 -7 -2 -13q3 -4 3 -9q0 -28 -18 -50t-46 -27z" />
    <glyph glyph-name="shijian" unicode="&#xe600;" 
d="M950 386q0 89 -35 170t-93.5 140t-139.5 93.5t-170 34.5t-170 -34.5t-140 -93.5t-93.5 -140t-34.5 -170t34.5 -170t93.5 -139.5t140 -93.5t170 -35q145 0 263 90q5 6 5 13q0 8 -5.5 13.5t-13.5 5.5t-14 -6v0q-105 -77 -235 -77q-107 0 -198.5 53t-144.5 144t-53 199
t53 199.5t144.5 144.5t199 53t199 -53t144.5 -144.5t53 -199.5q0 -100 -45 -185v0q-1 -4 -1 -6q0 -8 5.5 -13.5t13.5 -5.5q13 0 18 12v0q50 96 50 201zM507 620q0 9 -6 15t-15 6t-15 -6t-6 -15v-249v-4t2 -10t6 -12.5t12.5 -10t21.5 -4.5h225v0q9 0 15 6t6 14.5t-6 14.5
t-15 6h-225v249v0z" />
    <glyph glyph-name="code" unicode="&#xe6c7;" 
d="M140 660h149v-149h-149v149zM736 660h148v-149h-148v149zM140 64h149v-149h-149v149zM103 287h74v-74h-74v74zM475 144h75v-80h-75v80zM662 144h74v-80h-74v80zM475 -85h75v-75h-75v75zM661 -85h78v-75h-78v75zM724 139h87v-75h-87v75zM811 64h74v-74h-74v74zM885 213h74
v-149h-74v149zM885 -11h74v-149h-74v149zM587 64h75v-149h-75v149zM401 64h74v-149h-74v149zM736 -11h75v-149h-75v149zM661 139h75v-149h-75v149zM811 362h74v-149h-74v149zM475 362h74v-80h-74v80zM624 362h74v-80h-74v80zM327 335h74v-80h-74v80zM549 436h74v-74h-74v74z
M475 524h75v-87h-75v87zM401 660h74v-83h-74v83zM475 735h74v-75h-74v75zM401 586h223v-75h-223v75zM624 362h261v-74h-261v74zM177 362h224v-74h-224v74zM327 287h371v-74h-371v74zM475 213h261v-74h-261v74zM66 734v-297h297v297h-297zM327 473h-225v225h225v-225zM66 138
v-297h297v297h-297zM327 -123h-225v225h225v-225zM661 734v-297h298v297h-298zM922 473h-224v225h224v-225z" />
    <glyph glyph-name="bofang" unicode="&#xe61f;" horiz-adv-x="1221" 
d="M893 -145h-745q-33 0 -56.5 23t-23.5 56v735q0 33 23.5 56t56.5 23h745q33 0 56 -23t23 -56v-735q0 -33 -23 -56t-56 -23zM148 718q-20 0 -34.5 -14.5t-14.5 -34.5v-735q0 -20 14.5 -34t34.5 -14h745q20 0 34.5 14t14.5 34v735q0 20 -14.5 34.5t-34.5 14.5h-745zM449 500
v-392t0.5 -8t2 -9.5t5.5 -8.5t11.5 1.5t19.5 14.5q25 26 70 74t77.5 82.5t32.5 35.5q2 2 4.5 6t3 14.5t-7.5 17.5l-192 180q-1 1 -3 2.5t-6.5 4.5t-8 3t-6.5 -4.5t-3 -13.5zM1220 245z" />
    <glyph glyph-name="feiji" unicode="&#xe620;" 
d="M68 208l882 520l-118 -691l-346 78l262 372l-356 -352zM476 62l15 -186l97 161z" />
    <glyph glyph-name="close" unicode="&#xe601;" 
d="M564 264l289 288q10 10 10 24.5t-10 25t-24.5 10.5t-24.5 -11l-290 -287l-286 287q-11 11 -25 11t-24.5 -10.5t-10.5 -25t10 -24.5l287 -287l-289 -288q-10 -10 -10 -24.5t10 -25t24.5 -10.5t24.5 11l289 287l289 -290q11 -10 25.5 -10t24.5 10t10 24.5t-10 24.5z
M564 264z" />
    <glyph glyph-name="gouwuche" unicode="&#xe602;" 
d="M301 31h-20q-20 1 -31 16t-5 33q5 12 15.5 33.5t13.5 28.5q5 11 3 20q-29 137 -102 474l-2 10h-119q-14 1 -28 10q-20 14 -12 39q4 12 13 20t21 8h159q24 -1 31 -22q2 -5 12 -43q0 -1 2 -12h15h697q26 0 37 -11t11 -36v-292q0 -22 -9.5 -32.5t-31.5 -13.5
q-55 -7 -159.5 -19t-125.5 -14q-41 -5 -87.5 -10.5t-102.5 -12t-87 -10.5q-6 -1 -59 -7q17 -48 -8 -80h18h527q14 0 18 -1q14 -3 22.5 -15t7.5 -25q-1 -14 -11.5 -24.5t-24.5 -11.5h-24q73 -33 58 -96q-6 -26 -28.5 -42.5t-50.5 -15.5q-27 1 -47.5 19.5t-24.5 45.5
q-5 29 11 52.5t49 35.5h-504q70 -30 57 -92q-6 -27 -27.5 -44t-49.5 -17q-27 0 -48 18.5t-26 46.5t10 51.5t47 37.5z" />
    <glyph glyph-name="sousuo" unicode="&#xe60d;" 
d="M927 -85l-157 169q51 55 79.5 125t28.5 148q0 108 -53.5 200t-146 146t-201 54t-200.5 -54t-145.5 -146t-53.5 -200.5t53.5 -200.5t145.5 -145.5t201 -53.5q130 0 235 77l158 -171q11 -12 28 -12q15 0 26 10q11 11 12 26.5t-10 27.5zM154 357q0 88 43.5 162.5t118 118
t162.5 43.5t162.5 -43.5t118 -118t43.5 -162.5t-43.5 -162.5t-118 -118t-162.5 -43.5t-162.5 43.5t-118 118t-43.5 162.5z" />
    <glyph glyph-name="wuyouanzhuang" unicode="&#xe630;" 
d="M962 300q0 90 -36 172.5t-96 142t-143.5 95t-174.5 35.5t-174.5 -35.5t-143.5 -95t-96 -142t-36 -173t36 -172.5t96 -141.5t143.5 -95t174.5 -35.5q149 0 271 91q5 6 5 13q0 8 -6 14t-14 6q-9 0 -15 -6v0q-108 -79 -241 -79q-110 0 -204 54t-148.5 146.5t-54.5 202
t54.5 202.5t148.5 147t204.5 54t204.5 -54t148.5 -147t54.5 -202q0 -102 -47 -188v-1q-1 -3 -1 -5q0 -8 6 -14t14 -6q14 0 19 13v0q51 97 51 204zM815 321q-29 19 -70 -6q-107 -64 -132 -77q-11 -5 -23 -2.5t-17 8.5q-50 57 -73 108q-10 17 -6.5 31t6.5 18.5t7 7.5
q1 1 30.5 18.5t66.5 39t51 29.5q37 19 42 39q4 17 -7 33q-8 11 -37.5 22.5t-71 18.5t-96 -2.5t-102.5 -37.5q-157 -91 -150 -291l1 -10q0 -11 -4.5 -23t-9.5 -19l-4 -6l-22 -23q-6 -6 -6 -15.5t6.5 -16t16 -6t15.5 6.5l24 24q29 35 29 78l-1 11q1 16 0 37t6 50t18.5 56.5
t38.5 57t65 51.5t80 30.5t75 4.5t54.5 -10t33.5 -12q-5 -4 -15 -9q-35 -18 -151 -88q-12 -8 -21 -22t-13 -38.5t10 -53.5q26 -56 82 -121q11 -14 37.5 -20t56.5 7l133 77q14 9 22 9q0 -1 0.5 -2.5t1 -8t-1.5 -15.5q-2 -16 -7 -33t-20 -44t-35.5 -49t-58 -42t-84.5 -28
q-53 -9 -129 1q-27 5 -53.5 3.5t-43.5 -16.5q-25 -20 -30.5 -27.5t-3.5 -17.5q5 -17 22 -17h6q7 2 12 8q4 5 23 20q11 9 62 3q83 -11 143 -1q56 10 101 34t73 57t45 68.5t23 73.5q7 51 -20 69z" />
    <glyph glyph-name="chanpin" unicode="&#xe614;" 
d="M439 667q21 0 36.5 -15.5t15.5 -36.5v-259q0 -22 -15.5 -37.5t-36.5 -15.5h-259q-22 0 -37.5 15.5t-15.5 37.5v259q0 21 15.5 36.5t37.5 15.5h259zM855 667q21 0 36 -15.5t15 -36.5v-259q0 -22 -15 -37.5t-36 -15.5h-260q-22 0 -37.5 15.5t-15.5 37.5v259q0 21 15.5 36.5
t37.5 15.5h260zM439 252q21 0 36.5 -15.5t15.5 -37.5v-259q0 -22 -15.5 -37t-36.5 -15h-259q-22 0 -37.5 15t-15.5 37v259q0 22 15.5 37.5t37.5 15.5h259zM855 252q21 0 36 -15.5t15 -37.5v-259q0 -22 -15 -37t-36 -15h-260q-22 0 -37.5 15t-15.5 37v259q0 22 15.5 37.5
t37.5 15.5h260z" />
    <glyph glyph-name="fenlei" unicode="&#xe60e;" 
d="M966 652v-224q0 -42 -29.5 -71.5t-71.5 -29.5h-222q-42 0 -71.5 29.5t-29.5 71.5v224q0 42 29.5 72t71.5 30h222q42 0 71.5 -30t29.5 -72zM381 273h-222q-42 0 -71.5 -29.5t-29.5 -71.5v-224q0 -42 29.5 -72t71.5 -30h222q42 0 71.5 30t29.5 72v224q0 42 -29.5 71.5
t-71.5 29.5zM864 270h-224q-42 0 -71.5 -29.5t-29.5 -71.5v-222q0 -42 29.5 -71.5t71.5 -29.5h224q42 0 72 29.5t30 71.5v222q0 42 -30 71.5t-72 29.5zM384 754h-224q-42 0 -72 -29.5t-30 -71.5v-222q0 -42 30 -71.5t72 -29.5h224q42 0 71.5 29.5t29.5 71.5v222
q0 42 -29.5 71.5t-71.5 29.5z" />
    <glyph glyph-name="angleup" unicode="&#xe621;" 
d="M797 219.5q0 -7.5 -6 -13.5l-28 -28q-6 -6 -13.5 -6t-13.5 6l-224 224l-225 -224q-5 -6 -12.5 -6t-13.5 6l-29 28q-5 6 -5 13.5t5 13.5l267 266q5 6 12.5 6t13.5 -6l266 -266q6 -6 6 -13.5z" />
    <glyph glyph-name="cube" unicode="&#xe60f;" 
d="M549 -35l365 200v363l-365 -133v-430v0zM512 459l399 146l-399 145l-399 -145zM988 603v-438q0 -20 -10.5 -37.5t-28.5 -26.5l-402 -220q-16 -9 -35 -9t-35 9l-402 220q-18 9 -28.5 26.5t-10.5 37.5v438q0 23 13.5 42t35.5 27l402 146q12 5 25 5t25 -5l402 -146
q22 -8 35.5 -27t13.5 -42z" />
    <glyph glyph-name="envelopeo" unicode="&#xe610;" 
d="M951 37v438q-18 -20 -40 -37q-153 -118 -243 -193q-29 -25 -47.5 -38.5t-49.5 -28t-58 -13.5h-2q-27 0 -58 14t-49.5 27.5t-47.5 38.5q-90 75 -243 193q-22 17 -40 37v-438q0 -8 5.5 -13.5t12.5 -5.5h842q7 0 12.5 5.5t5.5 13.5zM951 637v14v8l-2 7l-3 5l-5 4l-8 2h-841
q-8 0 -13.5 -5.5t-5.5 -13.5q0 -96 84 -162q110 -87 229 -181q4 -3 20.5 -17t26 -21.5t25.5 -18t29 -15.5t24 -5h2q11 0 24 5t29 15.5t25.5 18t26 21.5t20.5 17q119 94 229 181q31 25 57.5 66t26.5 75v0zM1024 658v-621q0 -38 -27 -65t-64 -27h-842q-37 0 -64 27t-27 65v621
q0 38 27 65t64 27h842q37 0 64 -27t27 -65z" />
    <glyph glyph-name="pencil" unicode="&#xe611;" 
d="M281 18l52 52l-135 135l-52 -52v-62h73v-73h62zM579 549q0 12 -12 12q-6 0 -10 -4l-310 -310q-4 -4 -4 -9q0 -13 13 -13q6 0 10 4l309 310q4 4 4 10zM549 658l237 -237l-475 -476h-238v238zM939 603q0 -30 -21 -51l-95 -95l-238 238l95 94q21 22 51 22q31 0 52 -22
l135 -134q21 -22 21 -52z" />
    <glyph glyph-name="qq" unicode="&#xe61c;" 
d="M154 435q-4 11 -4 30q0 11 6 28t14 26q-1 12 4 30t13 25q0 79 53 164.5t124 119.5q79 38 185 38q76 0 152 -31q28 -12 51.5 -27.5t40.5 -32.5t31.5 -39t24 -42t18.5 -48.5t14.5 -51t12.5 -55.5l1 -3q31 -48 31 -86q0 -8 -5 -23t-5 -22l1 -1.5l2 -3l1 -1.5q44 -66 69 -123
t25 -119q0 -25 -11 -57.5t-32 -32.5q-5 0 -11 4.5t-11 10t-11 15t-9 15.5t-7.5 14.5t-5.5 9.5q0 1 -1 1l-3 -2q-34 -88 -76 -128q12 -11 35.5 -21.5t39.5 -23.5t20 -38q-1 -2 -2 -9t-4 -10q-37 -55 -173 -55q-30 0 -63 5t-56 11t-60 17q-8 3 -13 4q-8 3 -26 3t-23 1
q-23 -26 -72.5 -37.5t-96.5 -11.5q-20 0 -39.5 1t-53 5t-57.5 11.5t-42.5 23t-18.5 36.5q0 23 5.5 34t23.5 28q6 1 23 7.5t28 6.5q2 0 8 1q1 2 1 3l-1 1q-27 7 -61.5 61t-41.5 89l-3 2q-2 0 -7 -12q-10 -23 -31 -42t-44 -22h-1q-2 0 -3.5 3t-2.5 3q-13 31 -13 57
q0 157 144 267z" />
    <glyph glyph-name="wechat" unicode="&#xe61d;" horiz-adv-x="1171" 
d="M332 632.5q0 23.5 -14.5 38t-37.5 14.5q-25 0 -44 -15t-19 -37q0 -23 19 -37.5t44 -14.5q23 0 37.5 14t14.5 37.5zM756 343q0 16 -14.5 28.5t-37.5 12.5q-15 0 -28 -13t-13 -28q0 -16 13 -29t28 -13q23 0 37.5 12.5t14.5 29.5v0zM621 632.5q0 23.5 -14 38t-37 14.5
q-25 0 -43.5 -15t-18.5 -37q0 -23 18.5 -37.5t43.5 -14.5q23 0 37 14t14 37.5zM984 343q0 16 -15 28.5t-37 12.5q-15 0 -28 -13t-13 -28q0 -16 13 -29t28 -13q22 0 37 12.5t15 29.5v0zM832 570q-18 2 -40 2q-96 0 -177.5 -44t-128 -119t-46.5 -164q0 -45 13 -87
q-20 -2 -39 -2q-14 0 -28 1t-31.5 3.5t-25.5 4t-31.5 6t-28.5 6.5l-144 -73l41 125q-166 116 -166 280q0 96 55.5 177.5t151 128t207.5 46.5q101 0 190.5 -38t149.5 -104.5t78 -148.5v0zM1170 249q0 -67 -39 -127.5t-106 -110.5l32 -104l-114 63q-86 -21 -125 -21
q-96 0 -177 40t-127.5 109t-47 151t46.5 151t128 109.5t177 40.5q92 0 173.5 -40.5t130 -110t48.5 -150.5v0z" />
    <glyph glyph-name="user" unicode="&#xe612;" 
d="M914 93q0 -68 -41.5 -108t-110.5 -40h-500q-69 0 -110.5 40t-41.5 108q0 30 2 59t8 62.5t15 62t24.5 55.5t35.5 46.5t49 31t63 11.5q5 0 24 -12.5t43 -27.5t62 -27.5t76 -12.5t76 12.5t62 27.5t42.5 27.5t24.5 12.5q34 0 63 -11.5t49 -31t35.5 -46.5t24.5 -55.5t15 -62
t8 -62.5t2 -59v0zM731 603.5q0 -90.5 -64 -155t-155 -64.5t-155 64.5t-64 155t64 155t155 64.5t155 -64.5t64 -155z" />
    <glyph glyph-name="icon10" unicode="&#xe619;" 
d="M511 -64q-142 0 -258 82q-13 3 -21.5 14t-8.5 25v4q0 17 12 29t28 12q18 0 30 -14q98 -70 217 -70q100 0 185 49t134 134t49 185t-49 185t-134 134.5t-185 49.5t-185 -49.5t-134.5 -134.5t-49.5 -185q0 -81 36 -157q19 -27 19 -44v-4q0 -17 -12 -29t-29 -12
q-13 0 -24 8.5t-15 21.5q-55 100 -55 215q0 92 35.5 175.5t95.5 143.5t143.5 95.5t175 35.5t174.5 -35.5t143.5 -95.5t96 -143.5t35.5 -175t-35.5 -175t-96 -143.5t-143.5 -95.5t-174 -35.5zM554 180q0 -18 -13 -31t-31 -13t-31 13t-13 31v1q0 19 13 31.5t31 12.5t31 -12.5
t13 -31.5v-1zM510 304q-17 0 -28.5 12t-11.5 29l-1 249q0 17 12 29t29 12t29 -12t12 -29v-249q0 -17 -12 -29t-29 -12z" />
    <glyph glyph-name="qunfengtongzhigonggao" unicode="&#xe61a;" horiz-adv-x="1025" 
d="M512 629q9 0 15.5 -6.5t7.5 -15.5l-8 2h-3h-0.5h-1.5q-6 1 -10 1t-11 -1h-1h-4q-3 -1 -7 -1q1 9 7.5 15t15.5 6v0v0zM512 139q-20 0 -35.5 12.5t-19.5 31.5h110q-4 -19 -19.5 -31.5t-35.5 -12.5v0v0zM697 208h-370q-3 0 -4 2t0 4l44 77q2 3 2 7v149q0 40 27.5 77t69.5 52
q16 5 30 8h3h6q4 1 6.5 1t7.5 -1h5h3q15 -3 32 -8q41 -16 68 -53t27 -76v-149q0 -4 2 -7l42 -73q1 -2 2 -3t1 -3q0 -4 -4 -4v0v0zM512 896q-104 0 -199 -40.5t-163.5 -109t-109 -163.5t-40.5 -199t40.5 -199t109 -163.5t163.5 -109t199 -40.5t199 40.5t163.5 109t109 163.5
t40.5 199t-40.5 199t-109 163.5t-163.5 109t-199 40.5zM697 183h-105q-4 -29 -27 -49t-53 -20t-53 20t-27 49h-105q-17 0 -25.5 14.5t0.5 28.5l42 75v146q0 47 32 91t82 62v0q2 1 6 2v4q0 20 14 34t34 14t34 -14t14 -34v-5q3 0 7 -2h1q49 -18 80 -62q31 -43 31 -90v-146
l40 -70q7 -8 7 -19q0 -12 -8.5 -20.5t-20.5 -8.5zM512 -103z" />
    <glyph glyph-name="qunfengshuxingpeizhi" unicode="&#xe7ba;" horiz-adv-x="1025" 
d="M441 639q77 0 131 -54t54 -130q0 -32 -11 -62l-6 -17l12 -12l127 -127q19 -18 19 -44.5t-18.5 -45t-44.5 -18.5t-45 19l-127 127l-12 12l-17 -6q-30 -11 -62 -11q-76 0 -130 54t-54 131q0 32 11 62l101 -101l20 -19l19 19l72 72l19 19l-19 20l-101 101q30 11 62 11z
M512 896q-104 0 -199 -40.5t-163.5 -109t-109 -163.5t-40.5 -199t40.5 -199t109 -163.5t163.5 -109t199 -40.5t199 40.5t163.5 109t109 163.5t40.5 199t-40.5 199t-109 163.5t-163.5 109t-199 40.5zM767.5 128.5q-26.5 -26.5 -63.5 -26.5v0q-38 0 -64 26l-127 127
q-35 -12 -72 -12q-87 0 -149 62t-62 150q0 43 17 84l4 9v0v0v0q1 2 3 4q4 4 9 4t9 -4v0h1l116 -116l71 71l-119 119v0q-7 8 0 15q2 2 4 2v1l12 5q41 17 84 17q88 0 150 -62t62 -149q0 -37 -12 -72l127 -126q26 -27 26 -64.5t-26.5 -64zM441 666zM512 -103z" />
    <glyph glyph-name="gouwuche1" unicode="&#xe61b;" 
d="M933 588v0l-124 -279v0q-10 -23 -35 -25v0l-357 -24l21 -60h388q35 0 59 -24.5t24 -59t-24 -59t-58.5 -24.5t-58.5 24.5t-24 59.5h-385q0 -35 -24.5 -59.5t-58.5 -24.5t-58 24.5t-24 59t24 59t58 24.5h75l-159 461h-94q-17 0 -29.5 12.5t-12.5 29.5t12.5 29.5t29.5 12.5
h123q29 0 39 -28v0l25 -70h610q17 0 29.5 -12.5t12.5 -29.5q0 -8 -4 -17zM313 563l76 -221l355 24l87 197h-518z" />
    <glyph glyph-name="202" unicode="&#xe624;" 
d="M344 33q-13 0 -21.5 9t-8.5 21.5t9 21.5l309 304l-312 313q-9 9 -9 21.5t9 21.5t21.5 9t21.5 -9l335 -334q9 -10 9 -22.5t-10 -21.5l-331 -325q-9 -9 -22 -9z" />
    <glyph glyph-name="yanjingguan01" unicode="&#xe603;" 
d="M717 671q0 -4 -1 -5q-52 -94 -156.5 -282t-157.5 -283l-25 -44q-5 -8 -14 -8q-6 0 -66 35q-8 5 -8 14q0 6 22 43q-72 33 -132 86.5t-104 122.5q-10 15 -10 34t10 34q77 118 190 185.5t247 67.5q44 0 90 -8l27 48q5 8 14 8q2 0 8.5 -3t15.5 -7.5t17 -9.5q7 -4 15 -9t10 -6
q8 -5 8 -13zM342 197l39 70q-43 32 -67.5 79.5t-24.5 101.5q0 60 30 112q-114 -58 -190 -176q83 -129 213 -187zM529 558.5q7 6.5 7 16.5t-7 17t-17 7q-62 0 -107 -44.5t-45 -106.5q0 -10 7 -17t17 -7t17 7t7 17q0 43 30.5 73.5t73.5 30.5q10 0 17 6.5zM959 384
q0 -17 -10 -34q-20 -32 -55 -73q-74 -85 -172.5 -132.5t-209.5 -47.5l37 66q106 9 196 68t150 153q-57 89 -141 147l32 55q47 -31 90.5 -75.5t72.5 -92.5q10 -17 10 -34zM735 448q0 -69 -39 -126.5t-104 -82.5l139 251q4 -23 4 -42z" />
    <glyph glyph-name="yanjingkai01" unicode="&#xe604;" 
d="M959 384q0 -17 -10 -34q-70 -115 -188 -184t-249 -69t-249 69t-188 184q-10 17 -10 34t10 34q70 115 188 184t249 69t249 -69t188 -184q10 -17 10 -34zM895 384q-76 118 -190 176q30 -52 30 -112q0 -92 -65.5 -158t-157.5 -66t-157.5 66t-65.5 158q0 60 30 112
q-114 -58 -190 -176q66 -102 166 -162.5t217 -60.5t217 60.5t166 162.5zM529 558.5q7 6.5 7 16.5t-7 17t-17 7q-62 0 -107 -44.5t-45 -106.5q0 -10 7 -17t17 -7t17 7t7 17q0 43 30.5 73.5t73.5 30.5q10 0 17 6.5z" />
    <glyph glyph-name="yuming" unicode="&#xe6a7;" 
d="M512 832q-91 0 -174 -35.5t-143 -95.5t-95.5 -143t-35.5 -174t35.5 -174t95.5 -143t143 -95.5t174 -35.5t174 35.5t143 95.5t95.5 143t35.5 174t-35.5 174t-95.5 143t-143 95.5t-174 35.5zM512 -34q-113 0 -209.5 56t-152.5 152.5t-56 209.5t56 209.5t152.5 152.5
t209.5 56t209.5 -56t152.5 -152.5t56 -209.5t-56 -209.5t-152.5 -152.5t-209.5 -56zM162 278l44 14v135h-40v24h40v96h26v-96h38v-24h-38v-126l36 12q0 -3 2 -25q-48 -18 -102 -38zM252 273q62 10 126 23q0 -6 2 -24q-52 -9 -119 -23zM337 225q39 32 69 75q-12 54 -15 164
h-121v24h121q-1 28 -1 60h27q-1 -31 0 -60h85v-24h-85q2 -79 9 -132q25 43 42 94l25 -10q-27 -69 -59 -120q7 -28 18 -45q9 -15 16 -15q6 0 8 15q4 18 5 54q15 -6 26 -9q-5 -41 -8 -58q-6 -30 -28 -30q-17 0 -32 17q-14 15 -24 44q-26 -36 -56 -62q-10 9 -22 18zM278 425h88
v-107h-23v7h-41v-12h-24v112zM343 403h-41v-55h41v55zM445 543q26 -18 41 -32l-16 -18q-15 15 -40 34zM645 548l27 -11q-11 -15 -23 -29h176v-25q-64 -73 -169 -120h169v-157h-28v22h-182v-22h-28v129q-27 -10 -56 -20q-7 14 -16 26q78 21 140 52q-21 21 -46 44l21 18
q28 -26 53 -48q61 34 105 77h-160q-39 -42 -89 -78q-10 12 -18 22q68 45 124 120zM797 338h-182v-86h182v86z" />
    <glyph glyph-name="1" unicode="&#xe62f;" 
d="M510 -77q-94 0 -179 36.5t-147 98.5t-98.5 147t-36.5 178.5t36.5 179t98.5 147t147 98.5t179 37t179 -37t147 -98.5t98.5 -147t36.5 -179t-36.5 -178.5t-98.5 -147t-147 -98.5t-179 -36.5zM510 808q-115 0 -212.5 -57t-154.5 -154.5t-57 -212.5t57 -213t154.5 -154.5
t212.5 -56.5t212.5 56.5t154.5 154.5t57 213t-57 212.5t-154.5 154.5t-212.5 57zM510 384zM322 298v170q-7 -12 -24 -33q-7 -7 -9 -10l-33 24q75 94 113 196h48q-12 -31 -26 -64h137q-10 40 -19 64h49q3 -7 8 -24q7 -25 9 -40h184v-30h-191v-48h173v-28h-173v-50h170v-26
h-170v-49h196v-29h-395v-23h-47zM357 123q-47 2 -49 44v62q2 45 49 47h348q47 -2 50 -49v-57q2 -50 -52 -47h-346v0zM681 153q26 0 26 17v52q0 23 -23 23h-301q-26 0 -26 -23v-50q0 -19 26 -19h298v0zM374 551q0 -3 -2 -10q2 5 -3 -2v-36h152v48h-147zM521 475h-152v-50h152
v50zM521 399h-152v-49h152v49z" />
    <glyph glyph-name="unie634" unicode="&#xe623;" 
d="M848 405q2 2 3.5 5t1.5 7v375q0 7 -6 12q-4 5 -11 5h-376q-7 0 -12 -5l-355 -354q-17 -18 -23.5 -42t0 -48t23.5 -42l268 -268q28 -27 66.5 -27t65.5 27zM610 708q14 15 32.5 22.5t38.5 7.5q41 0 70.5 -29.5t29.5 -71t-29 -70.5q-9 -8 -18.5 -14.5t-20 -10t-21.5 -4.5
t-22 0t-21.5 4.5t-20.5 10t-18 14.5q-19 19 -26 45t0 51.5t26 44.5v0zM439 249l-56 56l-46 -46l-28 29l46 45l-58 58l23 23l58 -57l31 31l-58 58l23 23l50 -50l43 164l32 -32q-35 -120 -46 -149v-1q12 6 51 18l98 29l31 -31l-164 -43l48 -48l-23 -22l-56 55l-32 -31l56 -56z
M958 412l-80 367l-4 8q1 -28 0.5 -155.5t0.5 -155.5q-2 -14 -0.5 -26t0.5 -27t-6 -26q-50 -53 -108.5 -111.5t-129.5 -129t-111 -109.5q-20 -28 -54 -39l89 -58q32 -21 70 -12.5t59 40.5l271 421q4 6 3 13v0z" />
    <glyph glyph-name="xuanzhongduigou" unicode="&#xe613;" horiz-adv-x="1025" 
d="M1012.5 718.5q-11.5 11.5 -27 11.5t-27.5 -12l-573 -585l-319 325q-11 12 -27 12t-27 -12v0q-12 -11 -12 -27.5t12 -27.5l345 -353q12 -11 28 -11t27 11l601 612q11 12 11 28.5t-11.5 28z" />
    <glyph glyph-name="huo" unicode="&#xe622;" 
d="M841 285q-31 69 -46.5 127.5t-16.5 91.5t5.5 60t11 33.5t7.5 10.5q2 2 0.5 5t-4.5 1q-6 -2 -17.5 -8t-37 -24.5t-45 -41t-32 -59.5t-7.5 -77q-13 11 -27 25.5t-37 43.5t-40.5 59t-33 71t-20.5 82.5t3.5 91t33.5 97.5q2 2 0 4t-5 1q-7 -3 -20 -10t-43 -31t-52 -54
q-101 -137 -31 -344q24 -90 -40 -172q12 43 11 88q-4 119 -105 177q-2 2 -4 0.5t-2 -4.5q27 -150 -23 -210q-41 -49 -63.5 -116.5t-5.5 -131.5q32 -115 196 -174q40 -12 84 -20q3 -1 4 2.5t-2 4.5q-18 8 -33 18t-28 25.5t-19.5 34t-4.5 44t14 55.5q47 102 26 153
q64 -36 52 -97q0 -2 2 -3.5t4 0t7.5 6.5t17 17.5t22 27.5t20.5 36t14.5 42.5t2.5 48.5t-14 53q11 -7 21.5 -15.5t23.5 -26t20.5 -38.5t6.5 -54t-13 -70q-7 -25 0.5 -50t14 -33.5t12.5 -14.5q2 -2 4.5 0t1.5 5q-2 4 -3.5 10t-3.5 23t0 31.5t12 32.5t28 30q-11 -68 15 -99
q43 -52 34 -106q-6 -42 -49 -70q-3 -2 -1.5 -5t4.5 -2q155 51 204 159q46 98 -11 233v0v0v0z" />
    <glyph glyph-name="tijiaochenggong" unicode="&#xe605;" 
d="M510 896q-104 0 -198.5 -40.5t-162.5 -108.5t-108.5 -162.5t-40.5 -198.5t40.5 -198.5t108.5 -163t162.5 -109t198.5 -40.5t198.5 40.5t163 109t109 163t40.5 198.5v0q0 103 -40.5 197.5t-109 163t-163 109t-198.5 40.5zM789 531l-286 -315q-15 -16 -36.5 -17t-37.5 13
l-174 155v0q-17 13 -13 34q2 11 10.5 19t19.5 10q19 3 32 -11l139 -118q11 -9 25.5 -8t23.5 12l243 275v0q13 18 35 14q15 -3 23.5 -15.5t6.5 -27.5q-2 -11 -11 -20z" />
    <glyph glyph-name="houtaifuwu" unicode="&#xe618;" horiz-adv-x="1156" 
d="M1103 56h-1050q-22 0 -37.5 15.5t-15.5 36.5v735q0 22 15.5 37.5t37.5 15.5h1050q22 0 37 -15.5t15 -37.5v-735q0 -21 -15 -36.5t-37 -15.5zM1050 752q0 16 -11.5 27.5t-27.5 11.5h-867q-16 0 -27.5 -11.5t-11.5 -27.5v-526q0 -16 11.5 -27.5t27.5 -11.5h867
q16 0 27.5 11.5t11.5 27.5v526zM394 -23h367q22 0 37.5 -15.5t15.5 -37t-15.5 -37t-37.5 -15.5h-367q-22 0 -37.5 15.5t-15.5 37t15.5 37t37.5 15.5z" />
    <glyph glyph-name="zhilaing01" unicode="&#xe606;" 
d="M512 25q-83 0 -159 32q-73 31 -129.5 87.5t-86.5 129.5q-33 76 -33 158.5t33 158.5q30 73 86.5 129.5t129.5 87.5q76 32 159 32t159 -32q73 -31 129.5 -87.5t86.5 -129.5q33 -76 33 -158q0 -118 -62 -216q-6 -9 -14.5 -3.5t-3.5 14.5q59 93 59 205q0 78 -30 150
q-30 70 -83.5 123.5t-122.5 82.5q-72 31 -151 31t-151 -31q-69 -29 -122.5 -82.5t-83.5 -123.5q-30 -72 -30 -150.5t30 -150.5q30 -70 83.5 -123.5t122.5 -82.5q72 -31 151 -31q66 0 129 22q60 21 110 61q8 6 14.5 -2t-1.5 -14q-53 -42 -117 -64q-65 -23 -135 -23zM377 529
v16q0 13 7 20q7 8 20 8v0l285 21q10 1 9.5 11.5t-11.5 9.5l-283 -21q-21 -1 -35 -14q-13 -13 -13 -35q0 -4 1 -16q2 -95 -7 -152q-17 -100 -68 -120q-9 -4 -5 -13q2 -7 9 -7q2 0 4 1q61 24 80 136q10 58 7 155zM558 559q0 4 -3 7t-7.5 3t-7.5 -3t-3 -7v-42h-126
q-10 0 -10 -10t10 -10h126v-42h-70q-27 0 -33 -4q-9 -5 -9 -24v-120q0 -4 3 -7t7 -3t7 3t3 7v120v6q4 1 22 1h180h9q2 -4 2 -33v-94q0 -4 3 -7t7 -3t7 3t3 7v94q0 33 -3 41q-6 13 -28 13h-89v42h149q4 0 7 2.5t3 7t-3 7.5t-7 3h-149v42zM543.5 407.5q-10.5 -0.5 -9.5 -10.5
q0 -6 -0.5 -17t-9 -37.5t-25.5 -45.5q-39 -44 -118 -48q-10 0 -10 -11q1 -9 10 -9h1q87 4 133 55q19 22 29 51.5t10.5 42t0.5 20.5q-1 10 -11.5 9.5zM712 249q-20 0 -41 9t-36 20t-29.5 25.5t-19.5 20.5t-8 9q-6 9 -14 2.5t-2 -14.5q17 -23 44 -46q55 -46 106 -46q4 0 7 3
t3 7t-3 7t-7 3z" />
    <glyph glyph-name="shouhou01" unicode="&#xe607;" 
d="M546 34l-14 6q-1 0 -2 1h-1q-144 65 -235 186q-71 97 -105 226q-16 64 -22 133.5t-4.5 95t3.5 40.5l3 30l30 -1q13 -1 26 -1q75 0 145 16t100.5 30t52.5 28q4 2 5 3l18 11l17 -11q2 -2 5 -3v0q23 -14 53.5 -28t100 -30t145.5 -16q13 0 26 1l29 1l4 -30q2 -15 3 -40.5
t-4.5 -95t-22.5 -133.5q-33 -129 -105 -226q-90 -121 -235 -186h-1q-1 -1 -2 -1zM187 731l-1 -11q-2 -15 -3 -40t4.5 -92.5t21.5 -129.5q32 -125 102 -218q87 -118 227 -180v0h1v-1h2l5 -3l5 3h1l2 1q140 62 226 180q70 93 102 218q17 62 22.5 129.5t4 92.5t-3.5 40l-1 11
l-10 -1h-27q-78 0 -150.5 16.5t-104 31t-55.5 28.5v0q-3 2 -5 3l-6 5l-7 -4q-1 -2 -5 -4q-24 -14 -55.5 -28.5t-104 -31t-149.5 -16.5h-27zM742 290q-2 0 -5 2q-39 21 -93 85q-6 8 1.5 14.5t14.5 -1.5q51 -61 87 -80q9 -5 4 -14q-3 -6 -9 -6zM465 627q4 9 -5.5 13.5
t-13.5 -5.5q-14 -33 -36 -70q-42 -74 -77 -95q-8 -6 -3 -15q3 -4 9 -4q3 0 5 1q26 17 56 59v-246q0 -4 3 -7t7.5 -3t7.5 3t3 7v276v2q26 42 44 84zM753 431h-142v56h79q6 0 10.5 4.5t4.5 10.5v99q0 6 -4.5 10.5t-10.5 4.5h-178q-6 0 -10.5 -4.5t-4.5 -10.5v-99
q0 -6 4.5 -10.5t10.5 -4.5h78v-56h-140q-10 0 -10 -10.5t10 -10.5h140v-145q0 -4 3 -7t7.5 -3t7.5 3t3 7v145h142q4 0 7 3t3 7.5t-3 7.5t-7 3zM518 595h166v-87h-166v87zM551.5 391q-7.5 7 -14.5 -1q-56 -62 -91 -80q-10 -5 -5 -14q3 -6 9 -6q3 0 5 1q39 21 97 86
q7 7 -0.5 14z" />
    <glyph glyph-name="zizhu01" unicode="&#xe608;" 
d="M496 21q83 0 159 32q73 31 129.5 87.5t87.5 129.5q32 76 32 159t-32 159q-31 73 -87.5 129.5t-129.5 86.5q-76 32 -158.5 32t-158.5 -32q-73 -30 -129.5 -86.5t-87.5 -129.5q-32 -76 -32 -159q0 -117 62 -216q5 -9 14 -3.5t3 14.5q-59 94 -59 205q0 79 31 151
q29 69 82.5 122.5t123.5 83.5q72 30 150.5 30t150.5 -30q70 -30 123.5 -83.5t82.5 -122.5q31 -72 31 -151t-31 -151q-29 -69 -82.5 -122.5t-123.5 -83.5q-72 -30 -151 -30q-66 0 -128 22q-60 21 -110 60q-8 7 -14.5 -1t1.5 -15q53 -41 116 -64q65 -23 135 -23zM496.5 328
q-58.5 0 -98.5 51q-40 49 -40 118t40 119t98.5 50t98.5 -50t40 -119t-40 -118q-40 -51 -98.5 -51zM496.5 645q-48.5 0 -83.5 -43t-35 -104.5t35 -105t83.5 -43.5t83.5 43.5t35 105t-35 104.5t-83.5 43zM413 192q-101 0 -109 1q-17 2 -22 20q-2 8 -2 26v4q0 20 22 37q1 1 2 1
l110 48q9 4 13 -5.5t-5 -13.5l-108 -47q-14 -11 -14 -20v-5q0 -14 1 -20q2 -4 5 -5q16 -2 375 0q4 1 7 4q6 5 5 13q-2 18 -5.5 24.5t-17.5 13.5q-23 13 -100 39q-9 3 -6 12.5t13 6.5q78 -26 103 -40q19 -10 25 -21t8 -33q2 -17 -8 -27t-21 -12h-2q-161 -1 -269 -1z" />
    <glyph glyph-name="danbao01" unicode="&#xe609;" 
d="M496 21q-82 0 -158 32q-73 31 -129.5 87.5t-87.5 129.5q-32 76 -32 159t32 159q31 73 87.5 129.5t129.5 86.5q76 32 158.5 32t158.5 -32q73 -30 129.5 -86.5t87.5 -129.5q32 -76 32 -159q0 -117 -62 -216q-5 -9 -14 -3.5t-3 14.5q59 94 59 205q0 79 -31 151
q-29 69 -82.5 122.5t-123.5 83.5q-72 30 -150.5 30t-150.5 -30q-70 -30 -123.5 -83.5t-82.5 -122.5q-31 -72 -31 -151t31 -151q29 -69 82.5 -122.5t123.5 -83.5q72 -30 150 -30q67 0 129 22q60 21 110 60q8 7 14.5 -1t-1.5 -15q-53 -41 -116 -64q-66 -23 -136 -23zM714 476
h-435q-10 0 -10 10.5t10 10.5h400l-125 80q-8 6 -2.5 14.5t13.5 2.5l155 -99q6 -4 4 -11.5t-10 -7.5zM433 272q-3 0 -5 1l-155 100q-6 4 -4 11t10 7h435q4 0 7 -3t3 -7t-3 -7t-7 -3h-400l125 -81q8 -5 3 -14q-3 -4 -9 -4z" />
    <glyph glyph-name="jishu01" unicode="&#xe60a;" 
d="M785.5 51q-43.5 0 -74.5 31l-165 165q-61 -29 -129 -29q-126 0 -215 89t-89 215q0 57 20 110q2 5 7.5 6t9.5 -3l147 -146q32 -33 78 -33t78.5 32.5t32.5 78.5t-33 78l-145 145q-4 4 -3 9.5t7 7.5q50 19 105 19q125 0 214 -89t89 -215q0 -65 -27 -125l167 -166
q13 -14 21 -31q5 -9 -4.5 -13.5t-13.5 5.5q-7 14 -18 25l-171 171q-5 5 -2 12q28 57 28 122q0 117 -83 200t-200 83q-43 0 -83 -12l134 -133q38 -39 38 -93.5t-38.5 -92.5t-92.5 -38t-93 38l-135 135q-14 -42 -14 -87q0 -117 83 -200t201 -83q67 0 126 30q7 3 12 -2
l170 -171q25 -24 60 -24t60 24q13 13 20 30q3 10 12.5 6t6.5 -13q-8 -21 -24 -37q-31 -31 -74.5 -31z" />
    <glyph glyph-name="tese01" unicode="&#xe60b;" 
d="M245 40q-3 0 -6 2q-5 4 -4 10l47 275l-200 195q-4 4 -2 10t8 7l276 40l123 250q3 6 9.5 6t9.5 -6l123 -250l276 -40q6 -1 8 -7t-2 -10l-200 -195l16 -93q2 -10 -8.5 -11.5t-11.5 8.5l-17 98q-1 5 3 9l189 184l-261 38q-6 1 -8 5l-117 237l-116 -237q-3 -4 -8 -5l-261 -38
l189 -184q4 -4 3 -9l-45 -260l234 123q4 2 9 0l233 -123l-16 99q-2 10 8 11.5t12 -8.5l20 -119q1 -6 -4 -9.5t-11 -1.5l-247 130l-246 -130q-3 -1 -5 -1z" />
    <glyph glyph-name="add01" unicode="&#xe615;" 
d="M496 836q-109 0 -202 -54t-147 -147t-54 -202.5t54 -202t147 -147t202.5 -54.5t202.5 54.5t147 147t54 202t-54 202.5t-147 147t-203 54v0zM649 409h-130v-128q0 -10 -7 -17t-17 -7t-17 7t-7 17l1 128h-128q-10 0 -17 6.5t-7 17t7 17.5t17 7h128v128q0 10 7 17t17.5 7
t17.5 -7t7 -17v-128h128q10 0 17 -7t7 -17.5t-7 -17t-17 -6.5v0z" />
    <glyph glyph-name="jian01" unicode="&#xe616;" 
d="M496 836q-109 0 -202 -54t-147 -147t-54 -202.5t54 -202t147 -147t202.5 -54.5t202.5 54.5t147 147t54 202t-54 202.5t-147 147t-203 54v0zM659 457q10 0 17 -7t7 -17.5t-7 -17t-17 -6.5h-10h-315q-10 0 -17 6.5t-7 17t7 17.5t17 7h325z" />
    <glyph glyph-name="wo" unicode="&#xe61e;" 
d="M503.5 361q-93.5 0 -159.5 65t-66 156t66 155.5t159.5 64.5t159.5 -64.5t66 -155.5t-66 -156t-159.5 -65zM597 -35h-169q-52 0 -77.5 0.5t-66 2.5t-60 7t-41.5 13.5t-31 23t-9 33.5v17q0 115 83.5 197t201.5 82h169q117 0 201 -82t84 -197v-17q-1 -14 -6 -26t-18.5 -20
t-26 -14t-36.5 -10t-41 -6t-49.5 -3t-51.5 -1h-56v0z" />
    <glyph glyph-name="yiwancheng" unicode="&#xe626;" 
d="M666 557h313v-45h-313v45v0zM38 557h743v-45h-743l-6 38zM922 -58h-813q-39 0 -64.5 26t-25.5 64v634q0 38 25.5 63.5t64.5 25.5h813q38 0 63.5 -25.5t25.5 -63.5v-634q5 -37 -22.5 -63.5t-66.5 -26.5v0zM109 717q-19 0 -35 -16t-16 -35v-634q0 -19 16 -35t35 -16h813
q19 0 35 16t16 35v634q0 19 -16 35t-35 16h-756h-57v0zM749 422q-5 5 -13 5t-13 -5l-243 -262l-134 134q-5 5 -13 5t-13 -4.5t-5 -12.5t5 -13l147 -147v0v0h7v0h6h6v0h7v0v0l256 275q5 5 5 13t-5 12v0v0z" />
    <glyph glyph-name="daima2" unicode="&#xe627;" 
d="M691 895h-512q-46 0 -78 -34.5t-32 -82.5v-796q0 -47 31.5 -78.5t78.5 -31.5h683q47 0 81.5 32t34.5 78v626l-287 287v0zM894 611h-203l3 -3v203l200 -200v0zM862 -71h-683q-24 0 -38.5 15t-14.5 38v796q0 24 15 42.5t38 18.5h458v-231q0 -24 15 -39t39 -15h231v-571
q0 -23 -18 -38.5t-42 -15.5v0zM430 141l-120 121v-40l120 120q8 8 8 20t-8 20.5t-20 8.5t-20 -9l-121 -120q-8 -9 -8 -20.5t8 -19.5l121 -121q8 -8 20 -8t20 8t8 20t-8 20zM617 342l121 -120v40l-121 -121q-8 -8 -8 -20t8.5 -20t20 -8t19.5 8l121 121q8 8 8 19.5t-8 20.5
l-121 120q-8 9 -19.5 9t-20 -8.5t-8.5 -20.5t8 -20z" />
    <glyph glyph-name="biji" unicode="&#xe628;" 
d="M734 833h-551q-3 0 -7.5 -0.5t-17 -5t-22.5 -12t-19.5 -24t-12.5 -38.5v-733q0 -4 0.5 -9.5t5.5 -20t14 -26t28 -20.5t46 -9h642q3 0 8 1t18 6t23.5 12.5t19.5 24t11 37.5v593l-57 -61l-1 -555l-701 1v782h514l59 57v0zM734 833zM804 794l87 -67l18 24q13 18 0 40
q-13 20 -34 32q-4 2 -9 4t-18 2t-22 -9l-22 -26v0zM804 794zM863 691l-147 -196q-13 -24 -36 -35l-66 -31q-2 -1 -5 -1.5t-8.5 3t-7.5 13.5l12 72q-1 13 16 36l156 207l86 -68v0zM863 691zM318 324h386q0 -1 3 0t6 -4t3 -14v-18q-1 -1 -1.5 -2.5t-5 -4t-11.5 -1.5h-377
q-13 -1 -14 12v23v0q2 9 11 9v0zM318 324zM318 180h386l3 0.5t6 -4t3 -14.5v-17q-1 -1 -1.5 -3t-5 -4t-11.5 -1h-377q-13 -1 -14 11v24v0q2 8 11 8v0zM318 180z" />
    <glyph glyph-name="dengdai" unicode="&#xe629;" 
d="M512 -128q-139 0 -257 68.5t-186.5 186.5t-68.5 257t68.5 257t186.5 186.5t257 68.5t257 -68.5t186.5 -186.5t68.5 -257t-68.5 -257t-186.5 -186.5t-257 -68.5zM512 842q-93 0 -178 -36t-146.5 -97.5t-97.5 -146.5t-36 -178t36 -178t97.5 -146.5t146.5 -97.5t178 -36
t178 36t146.5 97.5t97.5 146.5t36 178t-36 178t-97.5 146.5t-146.5 97.5t-178 36zM737 280l-235 79h-1l-3 1q-16 10 -13 28v319q0 12 8 19.5t19 7.5t19 -7.5t8 -19.5v-305l225 -76q9 -5 12 -16t-2.5 -20.5t-16.5 -12.5t-20 3z" />
    <glyph glyph-name="zhongduanpeizhi" unicode="&#xe654;" 
d="M489 896h46q132 -7 241 -73q125 -76 191 -204q24 -46 39 -99q13 -46 18 -113v-46q-4 -68 -23 -128q-33 -109 -109 -192q-54 -61 -126 -102t-151 -57q-29 -6 -80 -10h-46q-111 6 -206 54q-138 68 -215 203q-31 54 -49 115q-13 47 -19 117v46q4 42 7 63q16 99 72 188
q47 74 117.5 129t153.5 83q65 22 139 26zM294 569q-16 -7 -27 -22q-8 -13 -8 -37v-205q0 -16 1 -21q3 -19 19 -32t36 -13q36 1 102 1h102q2 7 5 20h-200q-16 0 -21 2q-10 2 -17 12t-6 21v112.5v113.5q0 12 9 21t21 9h192h191q19 -1 21 -2q20 -6 21 -30v-54v-54q8 -1 21 -2
v47v48q-1 25 -4 33q-7 17 -20 26q-14 10 -40 10h-186h-186q-15 0 -26 -4zM670 382q-9 -8 -9 -26q-4 -1 -16 -7q-15 14 -24 12q-10 1 -27 -17q-18 -18 -16 -28q-1 -8 12 -22q-6 -13 -7 -16q-18 -2 -22 -6q-12 -8 -11 -32q1 -26 7 -32q9 -9 26 -9q1 -4 7 -16q-14 -15 -12 -24
q0 -10 17 -28q18 -17 28 -15q9 -1 22 12q14 -6 16 -7q2 -18 6 -23q8 -11 33 -11q25 2 31 8q9 8 9 26q2 0 17 7q14 -14 23 -12q10 -1 28 16q17 19 16 29q0 8 -13 22q7 14 7 16q18 2 23 6q12 8 11 32q-2 26 -8 32q-8 9 -25 9q-2 3 -8 16q14 15 13 24q0 10 -17 28
q-18 17 -29 15q-8 1 -21 -12q-14 6 -17 7q-2 18 -6 23q-8 11 -32 11q-26 -2 -32 -8zM270 169q3 -7 13 -6h211q15 0 28 1q-2 9 -4 17h-239q-5 2 -8.5 -3t-0.5 -9zM677 371q2 3 5.5 4.5t9.5 1.5h8h6.5h6.5t6.5 -1.5t5.5 -4.5q2 -4 3 -24q21 -7 31 -13q2 2 6.5 7t8.5 7t9 1
q8 -4 22 -20q8 -9 6 -15q-1 -3 -15 -17q6 -11 13 -31h10t12.5 -2t6.5 -7q1 -5 1 -29q0 -14 -10 -15q-5 -1 -19 -2q-5 -13 -14 -31q2 -1 7 -5.5t7 -8.5t1 -9q-2 -6 -16 -20q-13 -11 -19 -9q-2 1 -17 15q-9 -5 -31 -14v-9t-2 -12.5t-7 -5.5q-5 -2 -29 -2q-14 0 -15 10
q-1 5 -2 19q-21 8 -31 14q-1 -2 -6 -7t-9 -7t-9 -1q-8 4 -22 20q-8 9 -6 15q1 3 15 17q-6 11 -13 31h-10t-12 2t-6 7t-1 29q-1 14 9 15q5 1 20 2q4 13 13 31q-1 1 -6.5 5.5t-7.5 8.5t-1 9q2 6 16 20q13 11 20 9q2 -1 16 -15q10 5 31 13q1 3 1 8t0.5 9t2.5 7zM697 304
q-23 -1 -41 -18q-19 -18 -21 -44q0 -23 12 -40q12 -19 35 -26t43 2q21 8 33 29.5t7 43.5q-4 23 -24.5 39t-43.5 14zM693 291q19 3 35.5 -7.5t22.5 -28.5q11 -30 -12 -53q-11 -12 -27 -15.5t-30 2.5q-20 7 -29.5 27t-1.5 39q4 14 16 24t26 12zM696 264q-16 -3 -20 -19
q-4 -12 4 -22.5t21 -9.5q10 -1 18 7t7 18q1 12 -9 20.5t-21 5.5zM696 251q6 3 12.5 -1.5t5.5 -11.5q1 -8 -7.5 -11.5t-14.5 1.5q-6 4 -4.5 12.5t8.5 10.5z" />
    <glyph glyph-name="iconfontziqianeps" unicode="&#xe62a;" 
d="M512 896q-104 0 -199 -40.5t-163.5 -109t-109 -163.5t-40.5 -199t40.5 -199t109 -163.5t163.5 -109t199 -40.5t199 40.5t163.5 109t109 163.5t40.5 199t-40.5 199t-109 163.5t-163.5 109t-199 40.5zM386 704l43 -25q-28 -42 -62 -81v-164h-44v118q-34 -32 -72 -62
q-11 22 -25 43q105 76 160 171zM350 370v-157h-47v198h430v-198h-46v157h-337zM766 110q-130 57 -245 97q-46 -78 -258 -99q-9 19 -23 45q205 15 242 82q14 23 13 107h47q0 -69 -6 -93q122 -41 252 -92zM796 504q-11 -56 -82 -56h-106q-76 0 -76 74v17q-52 -18 -106 -33
l-22 45q67 16 128 36v109h46v-93q88 32 160 73l28 -40q-91 -44 -188 -80v-26q0 -40 39 -40h91q39 0 45 34q4 26 6 63q22 -9 47 -17q-5 -39 -10 -66z" />
    <glyph glyph-name="icon5" unicode="&#xe62b;" 
d="M211 112h202q5 -12 15.5 -20t23.5 -8h120q13 0 23.5 8t14.5 20h203q8 0 13 5t5 12t-5 12t-13 5h-218q-7 0 -12 -5t-5 -12v-4q0 -7 -6 -7h-120q-7 0 -7 7v4q0 7 -5 12t-12 5h-217q-8 0 -13 -5t-4.5 -12t5.5 -12t12 -5v0zM957 146h-51v434q0 7 -5 12t-12 5t-12 -5t-5 -12
v-451q0 -7 5 -12t12 -5h51v-27q0 -21 -14.5 -35.5t-35.5 -14.5h-756q-21 0 -35.5 14.5t-14.5 35.5v27h51q7 0 12 5t5 12v451q0 7 -5 12t-12 5t-12.5 -5t-5.5 -12v-434h-50q-7 0 -12 -5t-5 -12v-44q0 -35 24.5 -59.5t59.5 -24.5h756q35 0 59.5 24.5t24.5 59.5v44q0 7 -5 12
t-12 5v0zM586 636l-109 -109l-39 39q-5 6 -12 6t-12 -5t-5 -12.5t5 -12.5l51 -51q5 -5 12 -5t12 5l122 121q5 5 5 12t-5.5 12t-12.5 5t-12 -5v0zM744 767h-463q-28 0 -47.5 -19.5t-19.5 -47.5v-273q0 -28 19.5 -47.5t47.5 -19.5h21v-84q0 -11 7.5 -18.5t18.5 -7.5q12 0 20 9
l87 101h308q28 0 47.5 20t19.5 47v273q1 28 -19 47.5t-47 19.5v0zM777 427q0 -14 -10 -23.5t-23 -9.5h-317q-8 0 -13 -6l-78 -90v79q0 7 -5 12t-12 5h-38q-14 0 -23.5 10t-9.5 23v273q0 14 9.5 23.5t23.5 9.5h462q14 0 23.5 -9.5t9.5 -23.5v-273h1z" />
    <glyph glyph-name="icon4" unicode="&#xe62c;" 
d="M926 489q-7 0 -12.5 -5.5t-5.5 -12.5v-173h-793v393q0 16 11.5 27.5t27.5 11.5h344q7 0 12.5 5.5t5.5 13t-5.5 12.5t-12.5 5h-344q-31 0 -52.5 -22t-21.5 -53v-473q0 -31 21.5 -53t52.5 -22h340v-116h-159q-8 0 -13 -5.5t-5 -13t5 -12.5t13 -5h354q8 0 13 5t5 12.5t-5 13
t-13 5.5h-159v116h340q31 0 52.5 22t21.5 53v253q0 8 -5 13t-13 5v0zM869 179h-715q-16 0 -27.5 11.5t-11.5 27.5v44h793v-44q0 -16 -11 -27.5t-28 -11.5v0zM861 656q17 16 17 39t-17 39l-45 46q-17 16 -40 16t-39 -16l-30 -30l-2 -2l-2 -2l-215 -215q-1 0 -1 -1t-0.5 -1
t-0.5 -1q-1 0 -1 -2l-0.5 -0.5t-0.5 -2.5v0v-0.5v-0.5v0l-16 -118q-1 -8 4.5 -13.5t12.5 -4.5l118 16h1v0h0.5t0.5 0.5t1 0.5h1v0h1l1 0.5t1 1t1 0.5l1 1l216 216l1 1l1 1q1 0 2 2l30 29zM718 717l30 -29l-198 -197l-29 29zM769 666l30 -29l-197 -198l-30 30zM759 758
q7 7 17.5 7t17.5 -7l45 -46q8 -7 8 -17t-8 -18l-18 -18l-81 80zM501 420l9 67l58 -58z" />
    <glyph glyph-name="icon3" unicode="&#xe62d;" 
d="M645 276q-76 62 -172 111v103q25 22 25 55v122q0 53 -37.5 91t-90.5 38h-27q-53 0 -90.5 -38t-37.5 -91v-122q0 -33 25 -55v-103q-94 -47 -172 -111q-28 -23 -28 -59v-84q0 -7 5.5 -12.5t12.5 -5.5t12 5.5t5 12.5v84q0 20 16 33q80 66 171 109q13 7 13 21v118q0 10 -8 15
q-17 11 -17 31v123q0 39 27.5 66t65.5 27h27q38 0 65.5 -27t27.5 -66v-123q0 -20 -17 -31q-8 -5 -8 -15v-118q0 -14 13 -20q91 -44 172 -110q15 -13 15 -33v-84q0 -7 5 -12t12 -5t12.5 5t5.5 12v84q0 36 -28 59v0zM397 364q-7 0 -12 -5.5t-5 -12.5q0 -10 -8 -17q-1 -1 -3 -2
q-6 -4 -13 -4q-9 0 -16 6.5t-7 16.5q0 7 -5 12.5t-12.5 5.5t-12.5 -5.5t-5 -12.5q0 -20 13 -36l-12 -284q-1 -8 5 -14l39 -35q5 -5 12 -5t12 5l39 36q7 5 6 13l-12 281q15 17 15 39q0 7 -5.5 12.5t-12.5 5.5v0zM355 13l-21 20l11 256q6 -1 12 -1q3 0 9 1l11 -256zM920 777
h-278q-26 0 -45 -18.5t-19 -44.5v-170q0 -26 19 -45t45 -19h18v-63q0 -12 11 -16q3 -2 7 -2q7 0 12 5l80 77h150q26 0 45 18.5t19 44.5v170q0 26 -19 44.5t-45 18.5v0zM949 544q0 -12 -8.5 -20.5t-20.5 -8.5h-157q-7 0 -13 -5l-55 -53v41q0 7 -5 12t-12 5h-36
q-12 0 -20.5 8.5t-8.5 20.5v170q0 11 8.5 19.5t20.5 8.5h278q12 0 20.5 -8t8.5 -20v-170v0zM781 641q-7 0 -12 -5t-5 -12.5t5 -12.5t12 -5t12.5 5t5.5 12.5t-5.5 12.5t-12.5 5v0zM846 641q-7 0 -12 -5t-5 -12.5t5 -12.5t12 -5t12.5 5t5.5 12.5t-5.5 12.5t-12.5 5v0zM716 641
q-7 0 -12 -5t-5 -12.5t5 -12.5t12 -5t12.5 5t5.5 12.5t-5 12.5t-13 5v0z" />
    <glyph glyph-name="baozhongerpmbanpingtaishouyeshouxinguanli" unicode="&#xe6aa;" 
d="M512 882l-411 -181v-272q0 -124 53 -238.5t147.5 -195.5t210.5 -109q116 28 210.5 109t147.5 195.5t53 238.5v272l-411 181v0zM421 158l-183 181l64 64l119 -117l301 298l64 -64l-365 -362v0z" />
    <glyph glyph-name="shouquan" unicode="&#xe631;" 
d="M274 399h468q11 0 15 9.5t-4 17.5l-106 106q-11 12 -22 0q-11 -11 0 -22l79 -79h-429q-7 0 -11.5 -5t-4.5 -11.5t4.5 -11t10.5 -4.5zM742 357h-468q-10 0 -14 -10t3 -17l106 -107q5 -4 11.5 -4t10.5 4q11 12 0 23l-79 79h430q7 0 11.5 4.5t4.5 11t-4.5 11.5t-11.5 5z
M922 557q-34 80 -95.5 141.5t-141.5 95.5q-83 35 -173 35q-91 0 -173 -35q-80 -34 -141.5 -95.5t-95.5 -141.5q-35 -83 -35 -173t35 -173q34 -80 95.5 -141.5t141.5 -95.5q83 -35 173.5 -35t172.5 35q80 34 142 95q61 62 95 142q35 83 35 173q0 91 -35 173zM512 -41
q-115 0 -213 57t-155 155t-57 213t57 213t155 155t213 57t213 -57t155 -155t57 -213t-57 -213t-155 -155t-213 -57z" />
    <glyph glyph-name="shouquan1" unicode="&#xe632;" 
d="M349 428q-9 10 -22.5 10t-23 -9.5t-9.5 -23t9 -22.5l135 -138q9 -10 23 -10v0q13 0 23 9l257 254q9 10 9.5 23.5t-9 23t-23 9.5t-23.5 -9l-234 -231zM876 707l-353 122q-11 4 -22 0l-353 -122q-22 -7 -22 -30v-376q2 -45 23.5 -89.5t52 -78t72 -66t76 -53t72.5 -39.5
t53 -25.5t25 -10.5q6 -2 12 -2t12 2q10 4 25 10.5t53 25.5t72.5 39.5t76 53t72 66.5t52 78.5t23.5 89.5v375q0 23 -22 30zM833 304q-2 -45 -31.5 -90t-67 -77t-87.5 -62.5t-79.5 -44.5t-55.5 -25q-34 13 -71 32t-82 49t-80.5 62t-60.5 73t-27 81v351l321 111l321 -111v-349z
" />
  </font>
</defs>
</svg>
