<?xml version="1.0" encoding="utf-8"?>
<!-- Generator: Adobe Illustrator 16.0.0, SVG Export Plug-In . SVG Version: 6.00 Build 0)  -->
<!DOCTYPE svg PUBLIC "-//W3C//DTD SVG 1.1//EN" "http://www.w3.org/Graphics/SVG/1.1/DTD/svg11.dtd">
<svg version="1.1" id="图层_1" xmlns="http://www.w3.org/2000/svg" xmlns:xlink="http://www.w3.org/1999/xlink" x="0px" y="0px"
	 width="115px" height="30px" viewBox="0 0 115 30" enable-background="new 0 0 115 30" xml:space="preserve">
<g>
	<polygon fill="#DD4B39" points="12.381,26.179 3.06,16.266 3.06,26.179 0.407,26.179 0.407,3.89 3.06,3.89 3.06,11.832 
		11.503,3.89 15.041,3.89 4.301,13.915 15.821,26.179 	"/>
	<path fill="#DD4B39" d="M0.605,4.088h2.257v8.202l8.72-8.202h2.957L4.021,13.906l11.343,12.074h-2.897L2.862,15.765v10.214H0.605
		V4.088z"/>
	<path fill="#DD4B39" d="M25.973,26.726c-2.423,0-4.492-0.865-6.149-2.573c-1.656-1.71-2.496-3.781-2.496-6.161
		c0-2.419,0.845-4.518,2.511-6.236c1.667-1.72,3.726-2.591,6.119-2.591c2.391,0,4.45,0.872,6.118,2.591
		c1.665,1.719,2.51,3.806,2.51,6.205c0,2.4-0.835,4.482-2.48,6.191C30.459,25.86,28.396,26.726,25.973,26.726z M25.958,11.604
		c-1.654,0-3.098,0.641-4.292,1.904c-1.199,1.268-1.807,2.796-1.807,4.544c0,1.749,0.587,3.252,1.744,4.468
		c1.154,1.213,2.608,1.829,4.323,1.829c1.714,0,3.186-0.622,4.371-1.846c1.187-1.227,1.788-2.735,1.788-4.482
		c0-1.727-0.612-3.245-1.819-4.511C29.061,12.245,27.611,11.604,25.958,11.604z"/>
	<path fill="#DD4B39" d="M17.527,17.991c0-2.378,0.819-4.411,2.454-6.098c1.637-1.687,3.629-2.532,5.977-2.532
		c2.347,0,4.338,0.845,5.976,2.532c1.635,1.687,2.454,3.709,2.454,6.066c0,2.358-0.808,4.376-2.424,6.053
		c-1.616,1.678-3.613,2.516-5.991,2.516c-2.378,0-4.381-0.838-6.007-2.516C18.34,22.336,17.527,20.329,17.527,17.991z
		 M32.284,18.021c0-1.787-0.625-3.337-1.875-4.649c-1.25-1.311-2.734-1.967-4.451-1.967c-1.719,0-3.197,0.656-4.436,1.967
		c-1.241,1.312-1.861,2.872-1.861,4.68c0,1.811,0.599,3.345,1.799,4.604c1.199,1.262,2.688,1.891,4.467,1.891
		c1.779,0,3.283-0.635,4.513-1.904C31.669,21.37,32.284,19.83,32.284,18.021z"/>
	<path fill="#DD4B39" d="M45.067,26.726c-2.424,0-4.498-0.877-6.164-2.606c-1.665-1.727-2.51-3.813-2.51-6.204
		c0-2.39,0.851-4.467,2.528-6.175c1.677-1.708,3.715-2.576,6.056-2.576c2.509,0,4.604,1.009,6.236,3.004V9.592h2.438v16.586h-2.438
		v-2.444C49.412,25.72,47.348,26.726,45.067,26.726z M45.114,11.574c-1.733,0-3.219,0.64-4.414,1.904
		c-1.199,1.268-1.806,2.786-1.806,4.514s0.617,3.244,1.834,4.514c1.216,1.264,2.691,1.906,4.385,1.906
		c1.694,0,3.17-0.619,4.387-1.836c1.217-1.214,1.833-2.768,1.833-4.615c0-1.787-0.607-3.315-1.804-4.542
		C48.333,12.194,46.848,11.574,45.114,11.574z"/>
	<path fill="#DD4B39" d="M53.453,9.791v16.188H51.41v-2.774c-1.85,2.216-3.964,3.323-6.343,3.323c-2.378,0-4.385-0.848-6.021-2.547
		c-1.637-1.695-2.455-3.719-2.455-6.066c0-2.349,0.824-4.36,2.471-6.036c1.646-1.677,3.618-2.518,5.915-2.518
		c2.643,0,4.786,1.128,6.434,3.386V9.791H53.453z M51.532,17.96c0-1.85-0.621-3.409-1.861-4.679
		c-1.24-1.271-2.759-1.905-4.558-1.905c-1.799,0-3.318,0.656-4.558,1.966c-1.24,1.311-1.86,2.862-1.86,4.649
		c0,1.788,0.63,3.338,1.891,4.65c1.259,1.309,2.769,1.967,4.527,1.967c1.757,0,3.267-0.631,4.528-1.891
		C50.901,21.456,51.532,19.872,51.532,17.96z"/>
	<polygon fill="#DD4B39" points="71.787,26.179 71.787,15.599 61.053,15.599 61.053,26.179 58.434,26.179 58.434,3.89 61.053,3.89 
		61.053,13.067 71.787,13.067 71.787,3.89 74.377,3.89 74.377,26.179 	"/>
	<path fill="#DD4B39" d="M58.631,4.088h2.226v9.176h11.13V4.088h2.194v21.891h-2.194V15.4h-11.13v10.579h-2.226V4.088z"/>
	<path fill="#DD4B39" d="M84.775,26.604c-1.253,0-2.399-0.346-3.402-1.025c-1.005-0.678-1.726-1.582-2.147-2.685
		c-0.413-1.081-0.622-2.689-0.622-4.78V9.592h2.469v7.913c0,1.861,0.086,3.137,0.252,3.79c0.166,0.642,0.422,1.194,0.758,1.638
		c0.335,0.439,0.766,0.777,1.282,1.008c0.521,0.23,1.166,0.346,1.917,0.346c0.747,0,1.49-0.186,2.212-0.556s1.346-0.896,1.853-1.56
		c0.509-0.666,0.856-1.359,1.034-2.063c0.177-0.712,0.266-2.181,0.266-4.372V9.592h2.501v16.586h-2.501v-2.525
		C89.016,25.611,87.043,26.604,84.775,26.604z"/>
	<path fill="#DD4B39" d="M92.948,25.979h-2.103v-2.896c-1.669,2.217-3.688,3.324-6.07,3.324c-1.218,0-2.316-0.331-3.293-0.992
		c-0.975-0.659-1.664-1.523-2.071-2.591c-0.408-1.067-0.611-2.637-0.611-4.71V9.791h2.074v7.714c0,1.889,0.088,3.17,0.259,3.84
		c0.174,0.672,0.438,1.24,0.793,1.709c0.356,0.467,0.809,0.822,1.358,1.066c0.548,0.244,1.213,0.365,1.997,0.365
		c0.78,0,1.549-0.192,2.301-0.578c0.752-0.387,1.393-0.924,1.92-1.615c0.53-0.692,0.885-1.404,1.068-2.135
		c0.184-0.732,0.275-2.207,0.275-4.422V9.791h2.103V25.979z"/>
	<path fill="#DD4B39" d="M106.01,27.275c-2.44,0-4.537-1.06-6.234-3.152v2.604h-2.441V3.89h2.441v8.694
		c1.736-1.906,3.852-2.871,6.296-2.871c2.361,0,4.394,0.867,6.042,2.577c1.646,1.708,2.479,3.789,2.479,6.189
		c0,2.401-0.849,4.489-2.525,6.205C110.387,26.404,108.35,27.275,106.01,27.275z M105.888,12c-1.766,0-3.263,0.607-4.448,1.803
		c-1.185,1.195-1.787,2.717-1.787,4.525c0,1.83,0.607,3.395,1.805,4.65c1.195,1.254,2.677,1.891,4.402,1.891
		c1.723,0,3.208-0.647,4.41-1.921c1.209-1.276,1.822-2.795,1.822-4.513c0-1.719-0.599-3.239-1.777-4.516
		C109.142,12.646,107.649,12,105.888,12z"/>
	<path fill="#DD4B39" d="M97.532,26.528V4.088h2.044v9.025c1.77-2.134,3.933-3.202,6.495-3.202c2.316,0,4.283,0.839,5.9,2.518
		c1.614,1.675,2.423,3.693,2.423,6.051c0,2.358-0.824,4.38-2.47,6.068c-1.647,1.686-3.618,2.529-5.915,2.529
		c-2.56,0-4.705-1.178-6.434-3.536v2.987H97.532z M99.454,18.327c0,1.891,0.62,3.486,1.86,4.786
		c1.239,1.302,2.754,1.952,4.545,1.952c1.786,0,3.307-0.66,4.555-1.982c1.252-1.32,1.876-2.869,1.876-4.648s-0.61-3.33-1.829-4.651
		c-1.22-1.321-2.743-1.981-4.573-1.981c-1.829,0-3.358,0.62-4.589,1.86C100.068,14.902,99.454,16.457,99.454,18.327z"/>
</g>
</svg>
